<?xml version="1.0" standalone="no"?><svg xmlns="http://www.w3.org/2000/svg" viewBox="0 0 1440 200"><path fill="#f759ab" fill-opacity="1" d="M0,288L0,32L37.9,32L37.9,32L75.8,32L75.8,128L113.7,128L113.7,32L151.6,32L151.6,64L189.5,64L189.5,192L227.4,192L227.4,288L265.3,288L265.3,64L303.2,64L303.2,96L341.1,96L341.1,160L378.9,160L378.9,128L416.8,128L416.8,192L454.7,192L454.7,96L492.6,96L492.6,160L530.5,160L530.5,256L568.4,256L568.4,96L606.3,96L606.3,128L644.2,128L644.2,160L682.1,160L682.1,96L720,96L720,256L757.9,256L757.9,64L795.8,64L795.8,64L833.7,64L833.7,192L871.6,192L871.6,192L909.5,192L909.5,96L947.4,96L947.4,224L985.3,224L985.3,64L1023.2,64L1023.2,192L1061.1,192L1061.1,192L1098.9,192L1098.9,64L1136.8,64L1136.8,160L1174.7,160L1174.7,288L1212.6,288L1212.6,320L1250.5,320L1250.5,0L1288.4,0L1288.4,288L1326.3,288L1326.3,64L1364.2,64L1364.2,128L1402.1,128L1402.1,32L1440,32L1440,320L1402.1,320L1402.1,320L1364.2,320L1364.2,320L1326.3,320L1326.3,320L1288.4,320L1288.4,320L1250.5,320L1250.5,320L1212.6,320L1212.6,320L1174.7,320L1174.7,320L1136.8,320L1136.8,320L1098.9,320L1098.9,320L1061.1,320L1061.1,320L1023.2,320L1023.2,320L985.3,320L985.3,320L947.4,320L947.4,320L909.5,320L909.5,320L871.6,320L871.6,320L833.7,320L833.7,320L795.8,320L795.8,320L757.9,320L757.9,320L720,320L720,320L682.1,320L682.1,320L644.2,320L644.2,320L606.3,320L606.3,320L568.4,320L568.4,320L530.5,320L530.5,320L492.6,320L492.6,320L454.7,320L454.7,320L416.8,320L416.8,320L378.9,320L378.9,320L341.1,320L341.1,320L303.2,320L303.2,320L265.3,320L265.3,320L227.4,320L227.4,320L189.5,320L189.5,320L151.6,320L151.6,320L113.7,320L113.7,320L75.8,320L75.8,320L37.9,320L37.9,320L0,320L0,320Z"></path></svg>